<?xml version="1.0" encoding="UTF-8"?>
<svg width="375px" height="97px" viewBox="0 0 375 97" version="1.1" xmlns="http://www.w3.org/2000/svg" xmlns:xlink="http://www.w3.org/1999/xlink">
    <!-- Generator: Sketch 44.1 (41455) - http://www.bohemiancoding.com/sketch -->
    <title>Group</title>
    <desc>Created with Sketch.</desc>
    <defs></defs>
    <g id="Page-1" stroke="none" stroke-width="1" fill="none" fill-rule="evenodd" opacity="0.6">
        <g id="1.-index-" transform="translate(0.000000, -476.000000)">
            <g id="Group" transform="translate(-9.000000, 476.000000)">
                <g id="Group-Copy" transform="translate(315.000000, 0.000000)">
                    <g id="cloud">
                        <path d="M7.84434669,29.6073475 C7.84434669,29.6073475 2.03725709,26.5196981 0.867264165,34.4846678 C0.867264165,34.4846678 0.679273759,38.916879 6.2917768,40.6064056 L65.269438,40.6064056 C65.269438,40.6064056 86.7096201,33.5412992 73.7203488,14.8036224 C73.8768013,15.1106225 66.3398702,4.07749881 52.8938152,13.5875244 C52.8938152,13.5875244 51.2938354,-0.160374801 33.9465672,1.94614656 C33.8702992,2.0378772 19.2734213,1.89894735 19.6547615,20.8562031 C19.6547615,20.8562031 9.88791784,15.5366467 7.84434669,29.6073475" id="Fill-33"></path>
                        <path d="M60.0208842,42.0772768 C60.0208842,42.0772768 60.0208842,40.4731192 60.0208842,40.4731192 L63.1868323,40.4731192 C71.0688248,40.4731192 76.9583663,32.3573173 76.9583663,25.1376848 C76.9583663,17.3104137 70.651618,10.6770774 63.1868323,10.6770774 C59.8425819,10.6770774 56.6298424,11.8591099 54.1404124,14.0245277 C53.931809,14.206142 53.6436395,14.2636019 53.3787627,14.1837737 C53.1134736,14.1047663 52.9073438,13.8931907 52.833137,13.6276438 C50.8522293,6.55104544 44.3288386,1.60723578 36.968973,1.60723578 C27.8798842,1.60723578 20.4853888,8.96456689 20.4853888,18.0085516 C20.4853888,18.6461514 20.5344477,19.3206897 20.6403984,20.1321057 C20.6758527,20.4046299 20.5686652,20.6759227 20.3567637,20.8517911 C20.14445,21.0276595 19.8577234,21.0832724 19.5940834,20.9995451 C18.7732744,20.7376921 17.9275237,20.6047135 17.0795056,20.6047135 C12.5392899,20.6047135 8.84544331,24.2815321 8.84544331,28.8011645 C8.84544331,28.8454907 8.84935978,28.8889961 8.85203947,28.9325014 C8.85616207,28.9858571 8.85946014,29.0392127 8.86131531,29.093184 C8.87038502,29.358936 8.74691326,29.6121701 8.53088919,29.7689536 C8.31527739,29.9255318 8.03514695,29.9665746 7.78366855,29.8764857 C7.274734,29.6952817 6.75219488,29.6033459 6.23068641,29.6033459 C3.63015246,29.6033459 1.61317206,32.4309891 1.61317206,34.8633903 C1.61317206,37.2957914 3.63015246,40.1232294 6.23068641,40.1232294 L60.0208842,40.4731192 L60.0208842,42.0772768 L6.22450251,41.7292339 C2.66464033,41.7292339 0,38.1043344 0,34.8633903 C0,31.6222409 2.66464033,27.9975466 6.23068641,27.9975466 C6.57430483,27.9975466 6.91771713,28.026687 7.25844974,28.0845573 C7.62804053,23.0126941 11.8918361,18.998709 17.0795056,18.998709 C17.6958337,18.998709 18.310719,19.057195 18.9181836,19.1731408 C18.8872642,18.7649703 18.8724228,18.3818358 18.8724228,18.0079359 C18.8724228,8.07824777 26.990434,0 36.968973,0 C44.6462785,0 51.4941176,4.89681566 54.0239491,12.0472911 C56.6525167,10.1071983 59.8621643,9.05075676 63.1868323,9.05075676 C71.5262269,9.05075676 78.5713323,16.4390752 78.5713323,25.1368639 C78.5713323,33.1143516 71.9918742,42.0772768 63.1868323,42.0772768 L60.0208842,42.0772768 Z" id="Fill-41" fill="#FFFFFF"></path>
                    </g>
                </g>
                <g id="Group-Copy-2" transform="translate(39.426803, 54.044663) scale(-1, 1) translate(-39.426803, -54.044663) translate(0.000000, 33.000000)">
                    <g id="cloud">
                        <path d="M7.84434669,29.6073475 C7.84434669,29.6073475 2.03725709,26.5196981 0.867264165,34.4846678 C0.867264165,34.4846678 0.679273759,38.916879 6.2917768,40.6064056 L65.269438,40.6064056 C65.269438,40.6064056 86.7096201,33.5412992 73.7203488,14.8036224 C73.8768013,15.1106225 66.3398702,4.07749881 52.8938152,13.5875244 C52.8938152,13.5875244 51.2938354,-0.160374801 33.9465672,1.94614656 C33.8702992,2.0378772 19.2734213,1.89894735 19.6547615,20.8562031 C19.6547615,20.8562031 9.88791784,15.5366467 7.84434669,29.6073475" id="Fill-33"></path>
                        <path d="M60.0208842,42.0772768 C60.0208842,42.0772768 60.0208842,40.4731192 60.0208842,40.4731192 L63.1868323,40.4731192 C71.0688248,40.4731192 76.9583663,32.3573173 76.9583663,25.1376848 C76.9583663,17.3104137 70.651618,10.6770774 63.1868323,10.6770774 C59.8425819,10.6770774 56.6298424,11.8591099 54.1404124,14.0245277 C53.931809,14.206142 53.6436395,14.2636019 53.3787627,14.1837737 C53.1134736,14.1047663 52.9073438,13.8931907 52.833137,13.6276438 C50.8522293,6.55104544 44.3288386,1.60723578 36.968973,1.60723578 C27.8798842,1.60723578 20.4853888,8.96456689 20.4853888,18.0085516 C20.4853888,18.6461514 20.5344477,19.3206897 20.6403984,20.1321057 C20.6758527,20.4046299 20.5686652,20.6759227 20.3567637,20.8517911 C20.14445,21.0276595 19.8577234,21.0832724 19.5940834,20.9995451 C18.7732744,20.7376921 17.9275237,20.6047135 17.0795056,20.6047135 C12.5392899,20.6047135 8.84544331,24.2815321 8.84544331,28.8011645 C8.84544331,28.8454907 8.84935978,28.8889961 8.85203947,28.9325014 C8.85616207,28.9858571 8.85946014,29.0392127 8.86131531,29.093184 C8.87038502,29.358936 8.74691326,29.6121701 8.53088919,29.7689536 C8.31527739,29.9255318 8.03514695,29.9665746 7.78366855,29.8764857 C7.274734,29.6952817 6.75219488,29.6033459 6.23068641,29.6033459 C3.63015246,29.6033459 1.61317206,32.4309891 1.61317206,34.8633903 C1.61317206,37.2957914 3.63015246,40.1232294 6.23068641,40.1232294 L60.0208842,40.4731192 L60.0208842,42.0772768 L6.22450251,41.7292339 C2.66464033,41.7292339 0,38.1043344 0,34.8633903 C0,31.6222409 2.66464033,27.9975466 6.23068641,27.9975466 C6.57430483,27.9975466 6.91771713,28.026687 7.25844974,28.0845573 C7.62804053,23.0126941 11.8918361,18.998709 17.0795056,18.998709 C17.6958337,18.998709 18.310719,19.057195 18.9181836,19.1731408 C18.8872642,18.7649703 18.8724228,18.3818358 18.8724228,18.0079359 C18.8724228,8.07824777 26.990434,0 36.968973,0 C44.6462785,0 51.4941176,4.89681566 54.0239491,12.0472911 C56.6525167,10.1071983 59.8621643,9.05075676 63.1868323,9.05075676 C71.5262269,9.05075676 78.5713323,16.4390752 78.5713323,25.1368639 C78.5713323,33.1143516 71.9918742,42.0772768 63.1868323,42.0772768 L60.0208842,42.0772768 Z" id="Fill-41" fill="#FFFFFF"></path>
                    </g>
                </g>
                <g id="Group-Copy-3" transform="translate(149.840869, 21.419663) scale(-1, 1) translate(-149.840869, -21.419663) translate(110.414066, 0.375000)">
                    <g id="cloud">
                        <path d="M7.84434669,29.6073475 C7.84434669,29.6073475 2.03725709,26.5196981 0.867264165,34.4846678 C0.867264165,34.4846678 0.679273759,38.916879 6.2917768,40.6064056 L65.269438,40.6064056 C65.269438,40.6064056 86.7096201,33.5412992 73.7203488,14.8036224 C73.8768013,15.1106225 66.3398702,4.07749881 52.8938152,13.5875244 C52.8938152,13.5875244 51.2938354,-0.160374801 33.9465672,1.94614656 C33.8702992,2.0378772 19.2734213,1.89894735 19.6547615,20.8562031 C19.6547615,20.8562031 9.88791784,15.5366467 7.84434669,29.6073475" id="Fill-33"></path>
                        <path d="M60.0208842,42.0772768 C60.0208842,42.0772768 60.0208842,40.4731192 60.0208842,40.4731192 L63.1868323,40.4731192 C71.0688248,40.4731192 76.9583663,32.3573173 76.9583663,25.1376848 C76.9583663,17.3104137 70.651618,10.6770774 63.1868323,10.6770774 C59.8425819,10.6770774 56.6298424,11.8591099 54.1404124,14.0245277 C53.931809,14.206142 53.6436395,14.2636019 53.3787627,14.1837737 C53.1134736,14.1047663 52.9073438,13.8931907 52.833137,13.6276438 C50.8522293,6.55104544 44.3288386,1.60723578 36.968973,1.60723578 C27.8798842,1.60723578 20.4853888,8.96456689 20.4853888,18.0085516 C20.4853888,18.6461514 20.5344477,19.3206897 20.6403984,20.1321057 C20.6758527,20.4046299 20.5686652,20.6759227 20.3567637,20.8517911 C20.14445,21.0276595 19.8577234,21.0832724 19.5940834,20.9995451 C18.7732744,20.7376921 17.9275237,20.6047135 17.0795056,20.6047135 C12.5392899,20.6047135 8.84544331,24.2815321 8.84544331,28.8011645 C8.84544331,28.8454907 8.84935978,28.8889961 8.85203947,28.9325014 C8.85616207,28.9858571 8.85946014,29.0392127 8.86131531,29.093184 C8.87038502,29.358936 8.74691326,29.6121701 8.53088919,29.7689536 C8.31527739,29.9255318 8.03514695,29.9665746 7.78366855,29.8764857 C7.274734,29.6952817 6.75219488,29.6033459 6.23068641,29.6033459 C3.63015246,29.6033459 1.61317206,32.4309891 1.61317206,34.8633903 C1.61317206,37.2957914 3.63015246,40.1232294 6.23068641,40.1232294 L60.0208842,40.4731192 L60.0208842,42.0772768 L6.22450251,41.7292339 C2.66464033,41.7292339 0,38.1043344 0,34.8633903 C0,31.6222409 2.66464033,27.9975466 6.23068641,27.9975466 C6.57430483,27.9975466 6.91771713,28.026687 7.25844974,28.0845573 C7.62804053,23.0126941 11.8918361,18.998709 17.0795056,18.998709 C17.6958337,18.998709 18.310719,19.057195 18.9181836,19.1731408 C18.8872642,18.7649703 18.8724228,18.3818358 18.8724228,18.0079359 C18.8724228,8.07824777 26.990434,0 36.968973,0 C44.6462785,0 51.4941176,4.89681566 54.0239491,12.0472911 C56.6525167,10.1071983 59.8621643,9.05075676 63.1868323,9.05075676 C71.5262269,9.05075676 78.5713323,16.4390752 78.5713323,25.1368639 C78.5713323,33.1143516 71.9918742,42.0772768 63.1868323,42.0772768 L60.0208842,42.0772768 Z" id="Fill-41" fill="#FFFFFF"></path>
                    </g>
                </g>
                <g id="Group-Copy-4" transform="translate(210.000000, 54.000000)">
                    <g id="cloud">
                        <path d="M7.84434669,29.6073475 C7.84434669,29.6073475 2.03725709,26.5196981 0.867264165,34.4846678 C0.867264165,34.4846678 0.679273759,38.916879 6.2917768,40.6064056 L65.269438,40.6064056 C65.269438,40.6064056 86.7096201,33.5412992 73.7203488,14.8036224 C73.8768013,15.1106225 66.3398702,4.07749881 52.8938152,13.5875244 C52.8938152,13.5875244 51.2938354,-0.160374801 33.9465672,1.94614656 C33.8702992,2.0378772 19.2734213,1.89894735 19.6547615,20.8562031 C19.6547615,20.8562031 9.88791784,15.5366467 7.84434669,29.6073475" id="Fill-33"></path>
                        <path d="M60.0208842,42.0772768 C60.0208842,42.0772768 60.0208842,40.4731192 60.0208842,40.4731192 L63.1868323,40.4731192 C71.0688248,40.4731192 76.9583663,32.3573173 76.9583663,25.1376848 C76.9583663,17.3104137 70.651618,10.6770774 63.1868323,10.6770774 C59.8425819,10.6770774 56.6298424,11.8591099 54.1404124,14.0245277 C53.931809,14.206142 53.6436395,14.2636019 53.3787627,14.1837737 C53.1134736,14.1047663 52.9073438,13.8931907 52.833137,13.6276438 C50.8522293,6.55104544 44.3288386,1.60723578 36.968973,1.60723578 C27.8798842,1.60723578 20.4853888,8.96456689 20.4853888,18.0085516 C20.4853888,18.6461514 20.5344477,19.3206897 20.6403984,20.1321057 C20.6758527,20.4046299 20.5686652,20.6759227 20.3567637,20.8517911 C20.14445,21.0276595 19.8577234,21.0832724 19.5940834,20.9995451 C18.7732744,20.7376921 17.9275237,20.6047135 17.0795056,20.6047135 C12.5392899,20.6047135 8.84544331,24.2815321 8.84544331,28.8011645 C8.84544331,28.8454907 8.84935978,28.8889961 8.85203947,28.9325014 C8.85616207,28.9858571 8.85946014,29.0392127 8.86131531,29.093184 C8.87038502,29.358936 8.74691326,29.6121701 8.53088919,29.7689536 C8.31527739,29.9255318 8.03514695,29.9665746 7.78366855,29.8764857 C7.274734,29.6952817 6.75219488,29.6033459 6.23068641,29.6033459 C3.63015246,29.6033459 1.61317206,32.4309891 1.61317206,34.8633903 C1.61317206,37.2957914 3.63015246,40.1232294 6.23068641,40.1232294 L60.0208842,40.4731192 L60.0208842,42.0772768 L6.22450251,41.7292339 C2.66464033,41.7292339 0,38.1043344 0,34.8633903 C0,31.6222409 2.66464033,27.9975466 6.23068641,27.9975466 C6.57430483,27.9975466 6.91771713,28.026687 7.25844974,28.0845573 C7.62804053,23.0126941 11.8918361,18.998709 17.0795056,18.998709 C17.6958337,18.998709 18.310719,19.057195 18.9181836,19.1731408 C18.8872642,18.7649703 18.8724228,18.3818358 18.8724228,18.0079359 C18.8724228,8.07824777 26.990434,0 36.968973,0 C44.6462785,0 51.4941176,4.89681566 54.0239491,12.0472911 C56.6525167,10.1071983 59.8621643,9.05075676 63.1868323,9.05075676 C71.5262269,9.05075676 78.5713323,16.4390752 78.5713323,25.1368639 C78.5713323,33.1143516 71.9918742,42.0772768 63.1868323,42.0772768 L60.0208842,42.0772768 Z" id="Fill-41" fill="#FFFFFF"></path>
                    </g>
                </g>
            </g>
        </g>
    </g>
</svg>